<?xml version="1.0" standalone="no"?>
<!DOCTYPE svg PUBLIC "-//W3C//DTD SVG 20010904//EN"
 "http://www.w3.org/TR/2001/REC-SVG-20010904/DTD/svg10.dtd">
<svg version="1.0" xmlns="http://www.w3.org/2000/svg"
 width="497.000000pt" height="544.000000pt" viewBox="0 0 497.000000 544.000000"
 preserveAspectRatio="xMidYMid meet">

<g transform="translate(0.000000,544.000000) scale(0.100000,-0.100000)"
fill="#000000" stroke="none">
<path d="M841 4349 c-25 -10 -130 -97 -186 -154 -279 -285 -488 -651 -595
-1044 -47 -173 -60 -276 -60 -472 0 -171 1 -176 23 -197 16 -15 36 -22 61 -22
38 0 67 12 526 215 158 70 302 133 675 298 94 41 247 109 340 150 94 41 249
110 345 152 237 105 501 221 700 310 91 40 176 76 188 80 37 11 87 -3 116 -32
35 -34 34 -74 -4 -199 -16 -54 -54 -182 -85 -284 -31 -102 -58 -204 -62 -228
-5 -39 -3 -45 33 -78 l38 -36 460 6 c1141 15 1240 18 1268 32 65 33 72 86 33
246 -41 166 -104 336 -160 438 -29 52 -34 56 -85 67 -30 7 -163 36 -295 64
-132 28 -244 55 -250 59 -22 16 -136 40 -300 64 -49 8 -146 26 -215 40 -69 15
-170 36 -225 47 -55 12 -136 29 -180 39 -44 11 -147 33 -230 50 -161 34 -329
70 -465 100 -47 10 -141 30 -210 45 -69 14 -174 37 -235 50 -60 13 -162 35
-225 48 -63 14 -140 30 -170 37 -82 18 -259 55 -395 83 -66 14 -127 28 -135
31 -8 2 -26 0 -39 -5z"/>
<path d="M4565 2595 c-16 -8 -93 -42 -170 -75 -200 -87 -364 -159 -410 -180
-22 -10 -74 -33 -115 -50 -85 -37 -106 -46 -285 -125 -71 -32 -148 -65 -170
-75 -79 -34 -211 -92 -250 -110 -22 -10 -74 -33 -115 -50 -41 -17 -93 -40
-115 -50 -22 -10 -92 -40 -155 -68 -63 -28 -158 -69 -210 -93 -109 -48 -379
-166 -490 -214 -41 -18 -128 -56 -193 -84 -65 -28 -129 -51 -143 -51 -40 0
-84 29 -99 64 -16 38 -15 44 80 391 64 231 73 282 55 315 -26 48 -37 49 -595
39 -286 -5 -647 -13 -802 -17 -278 -7 -282 -7 -307 -31 -14 -13 -28 -37 -31
-53 -14 -61 64 -328 151 -516 13 -29 24 -54 24 -56 0 -2 23 -46 51 -97 296
-541 762 -928 1352 -1123 381 -126 804 -151 1199 -71 659 135 1220 534 1565
1115 193 325 307 704 319 1065 5 160 5 163 -46 198 -29 20 -54 21 -95 2z"/>
</g>
</svg>
